HIERARCHY
ROOT Hips
{
	OFFSET 0.00000 0.00000 0.00000
	CHANNELS 6 Xposition Yposition Zposition Zrotation Yrotation Xrotation 
	JOINT LHipJoint
	{
		OFFSET 0 0 0
		CHANNELS 3 Zrotation Yrotation Xrotation
		JOINT LeftUpLeg
		{
			OFFSET 1.66553 -1.82942 0.76350
			CHANNELS 3 Zrotation Yrotation Xrotation
			JOINT LeftLeg
			{
				OFFSET 2.41740 -6.64177 0.00000
				CHANNELS 3 Zrotation Yrotation Xrotation
				JOINT LeftFoot
				{
					OFFSET 2.71614 -7.46254 0.00000
					CHANNELS 3 Zrotation Yrotation Xrotation
					JOINT LeftToeBase
					{
						OFFSET 0.08005 -0.21993 1.82495
						CHANNELS 3 Zrotation Yrotation Xrotation
						End Site
						{
							OFFSET 0.00000 -0.00000 0.93441
						}
					}
				}
			}
		}
	}
	JOINT RHipJoint
	{
		OFFSET 0 0 0
		CHANNELS 3 Zrotation Yrotation Xrotation
		JOINT RightUpLeg
		{
			OFFSET -1.63725 -1.82942 0.76350
			CHANNELS 3 Zrotation Yrotation Xrotation
			JOINT RightLeg
			{
				OFFSET -2.40538 -6.60872 0.00000
				CHANNELS 3 Zrotation Yrotation Xrotation
				JOINT RightFoot
				{
					OFFSET -2.73312 -7.50919 0.00000
					CHANNELS 3 Zrotation Yrotation Xrotation
					JOINT RightToeBase
					{
						OFFSET -0.15567 -0.42769 1.93504
						CHANNELS 3 Zrotation Yrotation Xrotation
						End Site
						{
							OFFSET -0.00000 -0.00000 1.00100
						}
					}
				}
			}
		}
	}
	JOINT LowerBack
	{
		OFFSET 0 0 0
		CHANNELS 3 Zrotation Yrotation Xrotation
		JOINT Spine
		{
			OFFSET 0.00326 2.30118 -0.13017
			CHANNELS 3 Zrotation Yrotation Xrotation
			JOINT Spine1
			{
				OFFSET 0.02887 2.30677 0.00834
				CHANNELS 3 Zrotation Yrotation Xrotation
				JOINT Neck
				{
					OFFSET 0 0 0
					CHANNELS 3 Zrotation Yrotation Xrotation
					JOINT Neck1
					{
						OFFSET 0.12946 1.68326 0.00713
						CHANNELS 3 Zrotation Yrotation Xrotation
						JOINT Head
						{
							OFFSET -0.24364 1.67243 -0.16079
							CHANNELS 3 Zrotation Yrotation Xrotation
							End Site
							{
								OFFSET -0.09229 1.70819 -0.06383
							}
						}
					}
				}
				JOINT LeftShoulder
				{
					OFFSET 0 0 0
					CHANNELS 3 Zrotation Yrotation Xrotation
					JOINT LeftArm
					{
						OFFSET 3.28104 0.69567 -0.00556
						CHANNELS 3 Zrotation Yrotation Xrotation
						JOINT LeftForeArm
						{
							OFFSET 5.70706 -0.00000 -0.00000
							CHANNELS 3 Zrotation Yrotation Xrotation
							JOINT LeftHand
							{
								OFFSET 3.33243 -0.00000 0.00000
								CHANNELS 3 Zrotation Yrotation Xrotation
								JOINT LeftFingerBase
								{
									OFFSET 0 0 0
									CHANNELS 3 Zrotation Yrotation Xrotation
									JOINT LeftHandIndex1
									{
										OFFSET 0.79269 -0.00000 0.00000
										CHANNELS 3 Zrotation Yrotation Xrotation
										End Site
										{
											OFFSET 0.63909 -0.00000 0.00000
										}
									}
								}
								JOINT LThumb
								{
									OFFSET 0 0 0
									CHANNELS 3 Zrotation Yrotation Xrotation
									End Site
									{
										OFFSET 0.64884 -0.00000 0.64884
									}
								}
							}
						}
					}
				}
				JOINT RightShoulder
				{
					OFFSET 0 0 0
					CHANNELS 3 Zrotation Yrotation Xrotation
					JOINT RightArm
					{
						OFFSET -3.40955 0.64424 0.14010
						CHANNELS 3 Zrotation Yrotation Xrotation
						JOINT RightForeArm
						{
							OFFSET -5.88176 -0.00000 -0.00000
							CHANNELS 3 Zrotation Yrotation Xrotation
							JOINT RightHand
							{
								OFFSET -3.28156 -0.00000 0.00000
								CHANNELS 3 Zrotation Yrotation Xrotation
								JOINT RightFingerBase
								{
									OFFSET 0 0 0
									CHANNELS 3 Zrotation Yrotation Xrotation
									JOINT RightHandIndex1
									{
										OFFSET -0.86313 -0.00000 0.00000
										CHANNELS 3 Zrotation Yrotation Xrotation
										End Site
										{
											OFFSET -0.69587 -0.00000 0.00000
										}
									}
								}
								JOINT RThumb
								{
									OFFSET 0 0 0
									CHANNELS 3 Zrotation Yrotation Xrotation
									End Site
									{
										OFFSET -0.70650 -0.00000 0.70650
									}
								}
							}
						}
					}
				}
			}
		}
	}
}
MOTION
Frames: 5
Frame Time: .0083333
23.7251 17.3147 -3.4406 -11.9613 -28.0229 59.7185 0.0000 0.0000 0.0000 42.1708 -16.3009 -62.8174 0.4064 4.0926 11.3372 -0.9685 24.7766 -28.4056 0.0308 -1.1334 -3.1159 0.0000 0.0000 0.0000 -22.8064 33.7156 -70.8488 -2.2222 -9.3144 26.7837 -0.5221 1.2836 -13.2658 -0.0326 1.1651 -3.2032 -3.3545 2.1841 33.0111 -1.1203 1.2456 2.3590 0.0879 0.6567 -14.4750 13.6658 13.3525 7.7102 -32.5532 13.3199 -36.4591 -15.9759 9.0864 -8.5100 -0.0000 -0.0000 0.0000 -68.7339 26.9050 7.8365 14.4039 -23.3092 -2.9861 -0.0000 0.0000 -32.5703 45.8220 26.2879 24.5023 -7.1250 0.0000 -0.0000 21.3174 64.0866 10.0811 -0.0000 -0.0000 0.0000 74.4808 -26.3399 -26.6395 -6.2424 10.6659 -0.5833 0.0000 0.0000 25.9331 -41.3932 7.8356 -6.8520 7.1250 -0.0000 -0.0000 -10.3613 -19.6691 -6.3735
23.7435 17.3258 -3.4404 -11.6903 -28.2242 59.6050 0.0000 0.0000 0.0000 42.0787 -16.5942 -62.6133 0.3713 3.9138 10.8344 -0.8382 24.4406 -28.8199 0.0177 -0.8595 -2.3623 0.0000 0.0000 0.0000 -22.8100 33.4750 -70.5722 -2.2024 -9.2756 26.6613 -0.5136 0.8139 -13.2809 -0.1238 2.2679 -6.2465 -3.0883 2.1482 33.2487 -1.1241 1.2838 2.2100 -0.0830 0.6601 -14.7471 13.8311 13.2887 7.9337 -32.6322 13.2992 -36.1925 -16.0193 9.0719 -8.4382 0.0000 -0.0000 0.0000 -68.7385 27.2288 7.2369 14.1947 -23.0123 -2.9038 -0.0000 0.0000 -32.1483 45.3854 25.8245 23.8223 -7.1250 0.0000 -0.0000 20.5187 63.4049 9.3609 0.0000 -0.0000 0.0000 74.5153 -26.5569 -27.6363 -6.1036 10.4349 -0.5579 0.0000 0.0000 27.0414 -41.5637 7.9934 -7.0294 7.1250 -0.0000 -0.0000 -10.4524 -19.4400 -6.4858
23.7646 17.3299 -3.4391 -11.4094 -28.3885 59.5493 0.0000 0.0000 0.0000 42.0788 -16.8664 -62.5617 0.3425 3.7607 10.4043 -0.8357 24.4146 -28.7942 0.0142 -0.7697 -2.1153 0.0000 0.0000 0.0000 -22.6526 33.0895 -70.4877 -2.1789 -9.2293 26.5151 -0.4738 -0.1989 -13.0780 -0.7255 5.4426 -15.1752 -2.7722 2.0994 33.3608 -1.0640 1.3433 2.0076 -0.2191 0.6719 -15.0309 13.9016 13.1333 8.7277 -32.8170 13.1197 -36.2019 -16.2633 9.0282 -8.6264 -0.0000 -0.0000 0.0000 -68.7654 27.8048 7.0347 14.1150 -22.8989 -2.8727 -0.0000 0.0000 -31.9060 45.7518 26.0151 24.2407 -7.1250 0.0000 -0.0000 21.1339 63.7428 9.8211 -0.0000 -0.0000 0.0000 74.4283 -27.1760 -27.3485 -6.1089 10.4437 -0.5588 0.0000 0.0000 26.8430 -41.4201 7.8791 -6.8959 7.1250 -0.0000 -0.0000 -10.3725 -19.6090 -6.3948
23.7814 17.3328 -3.4390 -11.1737 -28.6366 59.6766 0.0000 0.0000 0.0000 42.6379 -17.3147 -62.5784 0.3232 3.6540 10.1052 -0.8558 24.7644 -29.2503 0.0156 -0.8075 -2.2192 0.0000 0.0000 0.0000 -23.0758 32.9183 -70.7546 -2.1535 -9.1787 26.3560 -0.5468 -0.4870 -14.1550 -0.7840 5.6528 -15.7801 -2.5798 2.1378 33.1955 -1.0235 1.4746 2.1536 -0.3273 0.7151 -14.7896 13.7587 13.1981 8.2713 -33.0551 13.0812 -36.2620 -16.2896 9.0434 -8.5476 -0.0000 -0.0000 0.0000 -68.5743 28.0817 7.7200 14.3402 -23.2189 -2.9609 -0.0000 0.0000 -32.7039 45.6425 26.6441 24.6371 -7.1250 0.0000 -0.0000 21.1275 64.4508 10.1661 -0.0000 -0.0000 0.0000 74.5040 -26.9701 -27.9145 -6.0786 10.3932 -0.5533 0.0000 0.0000 27.1990 -41.3290 7.8090 -6.8138 7.1250 -0.0000 -0.0000 -10.3213 -19.7127 -6.3378
23.7994 17.3404 -3.4375 -10.8557 -29.0000 59.6855 0.0000 0.0000 0.0000 43.0146 -17.8690 -62.5330 0.3066 3.5600 9.8420 -1.0283 25.5746 -29.3919 0.0778 -1.7989 -4.9502 0.0000 0.0000 0.0000 -23.5222 32.7126 -70.8878 -2.1269 -9.1256 26.1889 -0.4958 -1.1895 -13.7850 -1.0445 6.4995 -18.2407 -2.5111 2.1575 33.1050 -1.0249 1.5269 2.2595 -0.3834 0.7318 -14.6268 13.6455 13.2467 7.9935 -33.1893 13.0729 -36.2953 -16.2936 9.0610 -8.4987 -0.0000 -0.0000 0.0000 -68.6200 28.0067 7.3695 14.1756 -22.9852 -2.8963 -0.0000 0.0000 -32.4599 45.2122 26.8269 24.4490 -7.1250 0.0000 -0.0000 20.4891 64.5327 9.8852 -0.0000 -0.0000 0.0000 74.5187 -26.6880 -28.6386 -5.9950 10.2538 -0.5384 0.0000 0.0000 27.7894 -41.4939 7.6557 -6.7206 7.1250 -0.0000 -0.0000 -10.4617 -19.8878 -6.3852
